<?xml version="1.0" encoding="utf-8"?>
<!-- Generator: Adobe Illustrator 25.3.1, SVG Export Plug-In . SVG Version: 6.00 Build 0)  -->
<svg version="1.1" id="Layer_1" xmlns="http://www.w3.org/2000/svg" xmlns:xlink="http://www.w3.org/1999/xlink" x="0px" y="0px"
	 viewBox="0 0 555 555" style="enable-background:new 0 0 555 555;" xml:space="preserve">
<style type="text/css">
	.st0{fill:#FFFFFF;}
	.st1{fill:url(#SVGID_1_);}
	.st2{fill:url(#SVGID_2_);}
	.st3{fill:url(#SVGID_3_);}
	.st4{fill:url(#SVGID_4_);}
	.st5{fill:url(#SVGID_5_);}
</style>
<g>
	<g>
		<path class="st0" d="M470.7,277c-6.2,9.9-13.3,21.1-15.1,36.2c-8.6,70.2-31.7,105.7-77.2,118.9c-9.7,2.8-19.5,4.2-29.2,4.2
			c-26.4,0-52.3-10.1-74.3-29.3l-68.3,12.7V209.9c3.8-3.5,8.5-6,13.9-7.1c5.4-1.1,10.7-0.7,15.6,1c-1-5.2-2-10.9-2.9-16.7
			c-2.5-15.9,7.8-30.8,23.5-34c7.1-1.4,14.3-0.3,20.6,3.2c-0.1-1.4-0.1-2.8-0.2-4.2c-0.5-15.9,11.5-29.6,27.3-31.2
			c8.3-0.9,16.7,1.8,23.1,7.3c4.2,3.7,7.3,8.4,9,13.6c4.5-3.2,9.9-5.1,15.6-5.3c15.8-0.7,29.1,11,30.3,26.8
			c3.5,45.6,23.9,88.2,32.5,104.8c6.8-10.6,12.8-22.5,21-28c12-7.9,18.7-12.3,25.2-11.2c10.8,1.7,19,8.7,20.4,17.3
			C483.1,257.2,477.1,266.8,470.7,277z"/>
	</g>
	<g>
		<linearGradient id="SVGID_1_" gradientUnits="userSpaceOnUse" x1="258.4927" y1="383.4417" x2="161.9493" y2="406.4601">
			<stop  offset="1.639411e-03" style="stop-color:#FFFFFF"/>
			<stop  offset="1" style="stop-color:#00A0E8"/>
		</linearGradient>
		<path class="st1" d="M261.5,374c0,0,6.6,12,18.1,21.7l-111.9,23.3l-7.4-29.3L261.5,374z"/>
		<linearGradient id="SVGID_2_" gradientUnits="userSpaceOnUse" x1="238.04" y1="353.7704" x2="50.3167" y2="391.5386">
			<stop  offset="1.639411e-03" style="stop-color:#FFFFFF"/>
			<stop  offset="1" style="stop-color:#0092FF"/>
		</linearGradient>
		<polygon class="st2" points="242.9,341.7 257.5,367.9 51.3,406.2 47.9,374 		"/>
		<linearGradient id="SVGID_3_" gradientUnits="userSpaceOnUse" x1="227.2953" y1="322.5099" x2="96.783" y2="347.5396">
			<stop  offset="1.639411e-03" style="stop-color:#FFFFFF"/>
			<stop  offset="1" style="stop-color:#78BA3A"/>
		</linearGradient>
		<polygon class="st3" points="229.8,311.1 239.5,334.5 98.1,361.6 93.4,333.8 		"/>
		<linearGradient id="SVGID_4_" gradientUnits="userSpaceOnUse" x1="217.2734" y1="290.5467" x2="66.2009" y2="319.1522">
			<stop  offset="1.639411e-03" style="stop-color:#FFFFFF"/>
			<stop  offset="1" style="stop-color:#FFBC00"/>
		</linearGradient>
		<polygon class="st4" points="218.9,278.8 226.6,302.3 66.5,332.7 61.3,306.5 		"/>
		<linearGradient id="SVGID_5_" gradientUnits="userSpaceOnUse" x1="208.1301" y1="256.8165" x2="116.0563" y2="274.4714">
			<stop  offset="1.639411e-03" style="stop-color:#FFFFFF"/>
			<stop  offset="1" style="stop-color:#FF2832"/>
		</linearGradient>
		<polygon class="st5" points="211.2,248.2 216.2,268.9 117.7,287.7 113,261.4 		"/>
		<g>
			<path d="M306.8,365c13.6,15.7,36.1,24.3,56.4,20.1c22.8-4.2,34.4-21.4,40.6-42.4c0.9-2.8,3.9-4.4,6.8-3.5c2.5,0.8,4,3.2,3.7,5.7
				c-0.7,6.1-2.1,12.3-4.3,18.3c-11.6,33.8-51.2,46.5-82.5,32.4c-11.9-5.3-22.4-13.6-29.2-24.8c-1.5-2.4-0.7-5.6,1.8-7.1
				C302.3,362.5,305.2,363,306.8,365L306.8,365z"/>
			<path d="M286.8,373.5c9-7.2,18.3-13.6,28.1-19.5c1.9-1.1,4.3-0.5,5.4,1.4c1,1.7,0.6,3.8-0.9,5.1c-8.3,7-16.3,14.6-23.5,22.6
				C289.4,389.9,279.7,379.9,286.8,373.5L286.8,373.5z"/>
		</g>
		<path d="M487,244c-1.4-8.9-9.9-16.1-21.1-17.9c-6.8-1.1-17.5-0.7-29.9,7.6c-8.5,5.6-16.3,14-23.3,24.9
			c-8.9-17.1-24.6-53.1-28.2-100.3c-1.3-16.3-15-28.4-31.4-27.7c-5.9,0.3-11.4,2.2-16.1,5.5c-1.7-5.4-4.9-10.3-9.3-14.1
			c-6.5-5.7-15.2-8.5-23.8-7.6c-16.4,1.7-28.8,15.9-28.2,32.3c0,1.4,0.1,2.9,0.2,4.3c-6.5-3.6-13.9-4.8-21.3-3.3
			c-16.3,3.3-27,18.8-24.4,35.2c1,6,2,11.8,3,17.3c-5-1.7-10.6-2.1-16.1-1c-16.3,3.4-27,19.4-23.9,35.7c0.1,0.4,0.2,0.8,0.2,1.2
			l-70,13c-13.4,2.5-22.2,15.4-19.7,28.7c0.6,3.3,1.9,6.3,3.6,9l-35.9,6.7c-13.3,2.5-22.2,15.4-19.7,28.7
			c2.2,11.8,12.6,20.1,24.2,20.1c1.5,0,3-0.1,4.5-0.4l4.2-0.8c-0.7,3.1-0.8,6.4-0.1,9.7c0.6,3.3,1.8,6.3,3.6,9l-29.6,5.5
			C45,368,36.1,380.9,38.6,394.2c1.2,6.5,4.9,12.1,10.3,15.8c4.1,2.8,9,4.3,13.9,4.3c1.5,0,3-0.1,4.6-0.4l84.5-15.7
			c-0.7,3.1-0.8,6.4-0.2,9.7c1.2,6.5,4.9,12.1,10.3,15.8c4.1,2.8,9,4.3,13.9,4.3c1.5,0,3-0.1,4.6-0.4l92.9-17.3
			c22.8,19.9,49.6,30.3,76.9,30.3c10.1,0,20.2-1.4,30.3-4.3c47.1-13.6,71-50.4,79.9-123c1.9-15.6,9.2-27.2,15.6-37.4
			C482.6,265.4,488.8,255.5,487,244z M305.3,129.5c4.5-0.5,8.9,0.9,12.4,3.9c3.4,3,5.4,7.2,5.6,11.7c0.3,7.3,0.7,14.2,1.2,20.7
			c0,0.1,0,0.2,0,0.3c1.5,22.8,6.5,55.7,21.6,91.1c-10.1,1.8-20,4.6-29.3,8.7c-5.1-11.6-24.2-58.7-26.1-119.6
			C290.4,137.8,296.8,130.4,305.3,129.5z M463.2,267.9c-6.9,11-15.5,24.7-17.8,43.6c-4.5,36.9-13.2,63.6-26.4,81.6
			c-10.5,14.3-23.7,23.2-42.7,28.7c-28.3,8.2-57.9,2.6-83.2-15.2c-4.6-3.3-9.2-7-13.5-11.1c-0.5-0.5-1-1-1.6-1.5l-17.6,3.3
			l-82.8,15.4c-2.5,0.5-5-0.1-7.1-1.5c-2.1-1.4-3.5-3.6-4-6.1c-1-5.1,2.5-10.1,7.6-11.1l41.5-7.7l32.1-6l14.8-2.7
			c0.7-0.1,1-0.9,0.6-1.5c-2.3-3.3-4.6-6.7-6.9-10.3c-0.8-1.3-2.3-2-3.8-1.7l-13.2,2.5l-26.3,4.9l-41.5,7.7L64.6,399.1
			c-2.5,0.5-5-0.1-7.1-1.5c-2.1-1.4-3.5-3.6-4-6.1c-1-5.2,2.5-10.1,7.6-11.1L229.7,349l14.1-2.6c0.6-0.1,1-0.8,0.7-1.4
			c-1.7-3.4-3.4-6.9-5-10.5c-0.7-1.5-2.3-2.3-3.9-2l-12.5,2.3l-112.9,21c-2.5,0.5-5-0.1-7.1-1.5c-2.1-1.4-3.5-3.6-4-6.1
			c-1-5.2,2.5-10.1,7.6-11.1l109-20.3l13.9-2.6c0.6-0.1,0.9-0.7,0.7-1.3c-1.3-3.5-2.7-7-3.9-10.6c-0.6-1.6-2.2-2.5-3.8-2.2
			c-4.3,0.8-12.1,2.3-12.1,2.3L77.5,327.2c-5.2,1-10.1-2.5-11.1-7.6c-1-5.1,2.5-10.1,7.6-11.1l58.2-10.8l72.6-13.5l13.9-2.6
			c0.6-0.1,0.9-0.7,0.7-1.2c-1.1-3.8-2.2-7.6-3.2-11.5c-0.3-1.2-1.5-2-2.8-1.7l-12.7,2.4l-70.8,13.2l-0.4,0.1
			c-5.1,1-10.1-2.5-11.1-7.6c-1-5.1,2.5-10.1,7.6-11.1l70.3-13.1l13.7-2.6c0.6-0.1,1-0.7,0.9-1.3c-1-4.5-1.9-9.1-2.8-13.7
			c-0.1-0.4-0.2-0.8-0.2-1.2c-1.5-8.3,3.9-16.4,12.1-18.1c8.1-1.7,16.1,3.3,18.2,11.3c4.2,16.1,11.3,40.3,21.5,63.6
			c1.7,3.8,6.1,5.6,10,3.9c3.8-1.7,5.6-6.1,3.9-10c-8.7-19.9-15-40.4-19.2-55.7c0,0,0-0.1-0.1-0.3c0-0.1,0-0.2-0.1-0.3
			c-0.9-3.7-5.7-23.9-9.2-46.1c-1.3-8.4,4.1-16.3,12.5-18c4.3-0.9,8.5,0,12.1,2.5c3.6,2.5,5.9,6.1,6.7,10.4
			c2.7,16,5.8,30.6,9.2,43.7c0,0.1,0.1,0.2,0.1,0.3c6.7,27.8,14.9,47,17.9,53.5c-2.6,1.6-5.2,3.4-7.7,5.3c-8.6,7,2.2,19,10,11.3
			c8.8-7.6,19.4-13,30.4-17.1c11.5-4.2,23.7-6.5,35.9-7.3c6.4-0.8,5.8-10.2-0.7-10.1c-3.2,0-6.4,0.1-9.6,0.3
			c-0.1-0.4-0.2-0.8-0.4-1.2c-16.1-36.5-20.7-70.5-21.8-92.7c-0.2-4,1.2-7.8,3.9-10.8c2.7-3,6.4-4.7,10.5-4.9
			c8.1-0.3,15,5.7,15.6,13.7c4.3,55.5,23.9,95.8,32.7,111.5c-11,6.7-20.4,16-26.7,27.1c-2.6,4.6-4.9,9.4-6.3,14.5
			c-1.6,7.1,8.2,9.4,10.2,2.3c4.1-9.7,11-18.2,19.3-24.6c3.1-2.3,6.3-4.4,9.7-6.2c1.7-0.9,3.5-1.7,5.3-2.4c1.8-0.7,3.7-1.3,4.9-2.9
			c1.5-1.7,2.3-4,3.4-6c0.9-1.5,1.8-3,2.7-4.5c2.2-3.5,4.6-6.9,7.2-10.1c5.4-6.7,12.2-13.2,20.5-16c3.6-1.2,7.5-1.6,11.2-1
			c5.6,0.9,8.3,3.9,8.6,5.4C473,252.3,468.6,259.2,463.2,267.9z"/>
	</g>
</g>
</svg>
